<?xml version="1.0" encoding="UTF-8"?>
<!DOCTYPE svg PUBLIC "-//W3C//DTD SVG 1.1//EN" "http://www.w3.org/Graphics/SVG/1.1/DTD/svg11.dtd">
<!-- Creator: CorelDRAW 2021 (64 Bit) -->
<svg xmlns="http://www.w3.org/2000/svg" xml:space="preserve" width="500px" height="433px" version="1.1" style="shape-rendering:geometricPrecision; text-rendering:geometricPrecision; image-rendering:optimizeQuality; fill-rule:evenodd; clip-rule:evenodd"
viewBox="0 0 500 433.01"
 xmlns:xlink="http://www.w3.org/1999/xlink"
 xmlns:xodm="http://www.corel.com/coreldraw/odm/2003">
 <defs>
  <style type="text/css">
   <![CDATA[
    .str0 {stroke:#373435;stroke-miterlimit:22.9256}
    .fil1 {fill:none}
    .fil2 {fill:#000096}
    .fil0 {fill:#220E40}
   ]]>
  </style>
 </defs>
 <g id="Camada_x0020_1">
  <metadata id="CorelCorpID_0Corel-Layer"/>
  <polygon class="fil0 str0" points="125,433.011 -0.001,216.505 125,-0.002 375,-0.002 500.001,216.505 375.001,433.011 "/>
  <g id="_2779171166256">
   <g>
    <line class="fil1" x1="125" y1="-0.001" x2="375" y2= "-0.001" />
    <line class="fil1" x1="-0.001" y1="216.505" x2="125" y2= "-0.001" />
    <line class="fil1" x1="375" y1="-0.001" x2="500" y2= "216.505" />
    <line class="fil1" x1="125" y1="433.011" x2="375" y2= "433.011" />
    <line class="fil1" x1="0" y1="216.505" x2="125" y2= "433.011" />
    <line class="fil1" x1="375" y1="433.011" x2="500" y2= "216.505" />
   </g>
   <g>
    <line class="fil1" x1="125" y1="433.011" x2="175" y2= "433.011" />
    <line class="fil1" x1="125" y1="433.011" x2="150" y2= "389.71" />
    <line class="fil1" x1="150" y1="389.71" x2="175" y2= "433.011" />
   </g>
   <g>
    <line class="fil1" x1="100" y1="389.71" x2="150" y2= "389.71" />
    <line class="fil1" x1="100" y1="389.71" x2="125" y2= "433.011" />
    <line class="fil1" x1="125" y1="433.011" x2="150" y2= "389.71" />
   </g>
   <g>
    <line class="fil1" x1="100" y1="389.71" x2="150" y2= "389.71" />
    <line class="fil1" x1="100" y1="389.71" x2="125" y2= "346.409" />
    <line class="fil1" x1="125" y1="346.409" x2="150" y2= "389.71" />
   </g>
   <g>
    <line class="fil1" x1="74.999" y1="346.409" x2="125" y2= "346.409" />
    <line class="fil1" x1="74.999" y1="346.409" x2="100" y2= "389.71" />
    <line class="fil1" x1="100" y1="389.71" x2="125" y2= "346.409" />
   </g>
   <g>
    <line class="fil1" x1="74.999" y1="346.409" x2="125" y2= "346.409" />
    <line class="fil1" x1="74.999" y1="346.409" x2="100" y2= "303.107" />
    <line class="fil1" x1="100" y1="303.107" x2="125" y2= "346.409" />
   </g>
   <g>
    <line class="fil1" x1="49.999" y1="303.107" x2="100" y2= "303.107" />
    <line class="fil1" x1="49.999" y1="303.107" x2="74.999" y2= "346.409" />
    <line class="fil1" x1="74.999" y1="346.409" x2="100" y2= "303.107" />
   </g>
   <g>
    <line class="fil1" x1="49.999" y1="303.107" x2="100" y2= "303.107" />
    <line class="fil1" x1="49.999" y1="303.107" x2="74.999" y2= "259.806" />
    <line class="fil1" x1="74.999" y1="259.806" x2="100" y2= "303.107" />
   </g>
   <g>
    <line class="fil1" x1="24.999" y1="259.806" x2="74.999" y2= "259.806" />
    <line class="fil1" x1="24.999" y1="259.806" x2="49.999" y2= "303.107" />
    <line class="fil1" x1="49.999" y1="303.107" x2="74.999" y2= "259.806" />
   </g>
   <g>
    <line class="fil1" x1="24.999" y1="259.806" x2="74.999" y2= "259.806" />
    <line class="fil1" x1="24.999" y1="259.806" x2="49.999" y2= "216.505" />
    <line class="fil1" x1="49.999" y1="216.505" x2="74.999" y2= "259.806" />
   </g>
   <g>
    <line class="fil1" x1="-0.001" y1="216.505" x2="49.999" y2= "216.505" />
    <line class="fil1" x1="-0.001" y1="216.505" x2="24.999" y2= "259.806" />
    <line class="fil1" x1="24.999" y1="259.806" x2="49.999" y2= "216.505" />
   </g>
   <g>
    <line class="fil1" x1="175" y1="433.011" x2="225" y2= "433.011" />
    <line class="fil1" x1="175" y1="433.011" x2="200" y2= "389.71" />
    <line class="fil1" x1="200" y1="389.71" x2="225" y2= "433.011" />
   </g>
   <g>
    <line class="fil1" x1="150" y1="389.71" x2="200" y2= "389.71" />
    <line class="fil1" x1="150" y1="389.71" x2="175" y2= "433.011" />
    <line class="fil1" x1="175" y1="433.011" x2="200" y2= "389.71" />
   </g>
   <g>
    <line class="fil1" x1="150" y1="389.71" x2="200" y2= "389.71" />
    <line class="fil1" x1="150" y1="389.71" x2="175" y2= "346.409" />
    <line class="fil1" x1="175" y1="346.409" x2="200" y2= "389.71" />
   </g>
   <g>
    <line class="fil1" x1="125" y1="346.409" x2="175" y2= "346.409" />
    <line class="fil1" x1="125" y1="346.409" x2="150" y2= "389.71" />
    <line class="fil1" x1="150" y1="389.71" x2="175" y2= "346.409" />
   </g>
   <g>
    <line class="fil1" x1="125" y1="346.409" x2="175" y2= "346.409" />
    <line class="fil1" x1="125" y1="346.409" x2="150" y2= "303.107" />
    <line class="fil1" x1="150" y1="303.107" x2="175" y2= "346.409" />
   </g>
   <g>
    <line class="fil1" x1="100" y1="303.107" x2="150" y2= "303.107" />
    <line class="fil1" x1="100" y1="303.107" x2="125" y2= "346.409" />
    <line class="fil1" x1="125" y1="346.409" x2="150" y2= "303.107" />
   </g>
   <g>
    <line class="fil1" x1="100" y1="303.107" x2="150" y2= "303.107" />
    <line class="fil1" x1="100" y1="303.107" x2="125" y2= "259.806" />
    <line class="fil1" x1="125" y1="259.806" x2="150" y2= "303.107" />
   </g>
   <g>
    <line class="fil1" x1="74.999" y1="259.806" x2="125" y2= "259.806" />
    <line class="fil1" x1="74.999" y1="259.806" x2="100" y2= "303.107" />
    <line class="fil1" x1="100" y1="303.107" x2="125" y2= "259.806" />
   </g>
   <g>
    <line class="fil1" x1="74.999" y1="259.806" x2="125" y2= "259.806" />
    <line class="fil1" x1="74.999" y1="259.806" x2="100" y2= "216.505" />
    <line class="fil1" x1="100" y1="216.505" x2="125" y2= "259.806" />
   </g>
   <g>
    <line class="fil1" x1="49.999" y1="216.505" x2="100" y2= "216.505" />
    <line class="fil1" x1="49.999" y1="216.505" x2="74.999" y2= "259.806" />
    <line class="fil1" x1="74.999" y1="259.806" x2="100" y2= "216.505" />
   </g>
   <g>
    <line class="fil1" x1="225" y1="433.011" x2="275" y2= "433.011" />
    <line class="fil1" x1="225" y1="433.011" x2="250" y2= "389.71" />
    <line class="fil1" x1="250" y1="389.71" x2="275" y2= "433.011" />
   </g>
   <g>
    <line class="fil1" x1="200" y1="389.71" x2="250" y2= "389.71" />
    <line class="fil1" x1="200" y1="389.71" x2="225" y2= "433.011" />
    <line class="fil1" x1="225" y1="433.011" x2="250" y2= "389.71" />
   </g>
   <g>
    <line class="fil1" x1="200" y1="389.71" x2="250" y2= "389.71" />
    <line class="fil1" x1="200" y1="389.71" x2="225" y2= "346.409" />
    <line class="fil1" x1="225" y1="346.409" x2="250" y2= "389.71" />
   </g>
   <g>
    <line class="fil1" x1="175" y1="346.409" x2="225" y2= "346.409" />
    <line class="fil1" x1="175" y1="346.409" x2="200" y2= "389.71" />
    <line class="fil1" x1="200" y1="389.71" x2="225" y2= "346.409" />
   </g>
   <g>
    <line class="fil1" x1="175" y1="346.409" x2="225" y2= "346.409" />
    <line class="fil1" x1="175" y1="346.409" x2="200" y2= "303.107" />
    <line class="fil1" x1="200" y1="303.107" x2="225" y2= "346.409" />
   </g>
   <g>
    <line class="fil1" x1="150" y1="303.107" x2="200" y2= "303.107" />
    <line class="fil1" x1="150" y1="303.107" x2="175" y2= "346.409" />
    <line class="fil1" x1="175" y1="346.409" x2="200" y2= "303.107" />
   </g>
   <g>
    <line class="fil1" x1="150" y1="303.107" x2="200" y2= "303.107" />
    <line class="fil1" x1="150" y1="303.107" x2="175" y2= "259.806" />
    <line class="fil1" x1="175" y1="259.806" x2="200" y2= "303.107" />
   </g>
   <g>
    <line class="fil1" x1="125" y1="259.806" x2="175" y2= "259.806" />
    <line class="fil1" x1="125" y1="259.806" x2="150" y2= "303.107" />
    <line class="fil1" x1="150" y1="303.107" x2="175" y2= "259.806" />
   </g>
   <g>
    <line class="fil1" x1="125" y1="259.806" x2="175" y2= "259.806" />
    <line class="fil1" x1="125" y1="259.806" x2="150" y2= "216.505" />
    <line class="fil1" x1="150" y1="216.505" x2="175" y2= "259.806" />
   </g>
   <g>
    <line class="fil1" x1="100" y1="216.505" x2="150" y2= "216.505" />
    <line class="fil1" x1="100" y1="216.505" x2="125" y2= "259.806" />
    <line class="fil1" x1="125" y1="259.806" x2="150" y2= "216.505" />
   </g>
   <g>
    <line class="fil1" x1="275" y1="433.011" x2="325" y2= "433.011" />
    <line class="fil1" x1="275" y1="433.011" x2="300" y2= "389.71" />
    <line class="fil1" x1="300" y1="389.71" x2="325" y2= "433.011" />
   </g>
   <g>
    <line class="fil1" x1="250" y1="389.71" x2="300" y2= "389.71" />
    <line class="fil1" x1="250" y1="389.71" x2="275" y2= "433.011" />
    <line class="fil1" x1="275" y1="433.011" x2="300" y2= "389.71" />
   </g>
   <g>
    <line class="fil1" x1="250" y1="389.71" x2="300" y2= "389.71" />
    <line class="fil1" x1="250" y1="389.71" x2="275" y2= "346.409" />
    <line class="fil1" x1="275" y1="346.409" x2="300" y2= "389.71" />
   </g>
   <g>
    <line class="fil1" x1="225" y1="346.409" x2="275" y2= "346.409" />
    <line class="fil1" x1="225" y1="346.409" x2="250" y2= "389.71" />
    <line class="fil1" x1="250" y1="389.71" x2="275" y2= "346.409" />
   </g>
   <g>
    <line class="fil1" x1="225" y1="346.409" x2="275" y2= "346.409" />
    <line class="fil1" x1="225" y1="346.409" x2="250" y2= "303.107" />
    <line class="fil1" x1="250" y1="303.107" x2="275" y2= "346.409" />
   </g>
   <g>
    <line class="fil1" x1="200" y1="303.107" x2="250" y2= "303.107" />
    <line class="fil1" x1="200" y1="303.107" x2="225" y2= "346.409" />
    <line class="fil1" x1="225" y1="346.409" x2="250" y2= "303.107" />
   </g>
   <g>
    <line class="fil1" x1="200" y1="303.107" x2="250" y2= "303.107" />
    <line class="fil1" x1="200" y1="303.107" x2="225" y2= "259.806" />
    <line class="fil1" x1="225" y1="259.806" x2="250" y2= "303.107" />
   </g>
   <g>
    <line class="fil1" x1="175" y1="259.806" x2="225" y2= "259.806" />
    <line class="fil1" x1="175" y1="259.806" x2="200" y2= "303.107" />
    <line class="fil1" x1="200" y1="303.107" x2="225" y2= "259.806" />
   </g>
   <g>
    <line class="fil1" x1="175" y1="259.806" x2="225" y2= "259.806" />
    <line class="fil1" x1="175" y1="259.806" x2="200" y2= "216.505" />
    <line class="fil1" x1="200" y1="216.505" x2="225" y2= "259.806" />
   </g>
   <g>
    <line class="fil1" x1="150" y1="216.505" x2="200" y2= "216.505" />
    <line class="fil1" x1="150" y1="216.505" x2="175" y2= "259.806" />
    <line class="fil1" x1="175" y1="259.806" x2="200" y2= "216.505" />
   </g>
   <g>
    <line class="fil1" x1="325" y1="433.011" x2="375" y2= "433.011" />
    <line class="fil1" x1="325" y1="433.011" x2="350" y2= "389.71" />
    <line class="fil1" x1="350" y1="389.71" x2="375" y2= "433.011" />
   </g>
   <g>
    <line class="fil1" x1="300" y1="389.71" x2="350" y2= "389.71" />
    <line class="fil1" x1="300" y1="389.71" x2="325" y2= "433.011" />
    <line class="fil1" x1="325" y1="433.011" x2="350" y2= "389.71" />
   </g>
   <g>
    <line class="fil1" x1="300" y1="389.71" x2="350" y2= "389.71" />
    <line class="fil1" x1="300" y1="389.71" x2="325" y2= "346.409" />
    <line class="fil1" x1="325" y1="346.409" x2="350" y2= "389.71" />
   </g>
   <g>
    <line class="fil1" x1="275" y1="346.409" x2="325" y2= "346.409" />
    <line class="fil1" x1="275" y1="346.409" x2="300" y2= "389.71" />
    <line class="fil1" x1="300" y1="389.71" x2="325" y2= "346.409" />
   </g>
   <g>
    <line class="fil1" x1="275" y1="346.409" x2="325" y2= "346.409" />
    <line class="fil1" x1="275" y1="346.409" x2="300" y2= "303.107" />
    <line class="fil1" x1="300" y1="303.107" x2="325" y2= "346.409" />
   </g>
   <g>
    <line class="fil1" x1="250" y1="303.107" x2="300" y2= "303.107" />
    <line class="fil1" x1="250" y1="303.107" x2="275" y2= "346.409" />
    <line class="fil1" x1="275" y1="346.409" x2="300" y2= "303.107" />
   </g>
   <g>
    <line class="fil1" x1="250" y1="303.107" x2="300" y2= "303.107" />
    <line class="fil1" x1="250" y1="303.107" x2="275" y2= "259.806" />
    <line class="fil1" x1="275" y1="259.806" x2="300" y2= "303.107" />
   </g>
   <g>
    <line class="fil1" x1="225" y1="259.806" x2="275" y2= "259.806" />
    <line class="fil1" x1="225" y1="259.806" x2="250" y2= "303.107" />
    <line class="fil1" x1="250" y1="303.107" x2="275" y2= "259.806" />
   </g>
   <g>
    <line class="fil1" x1="225" y1="259.806" x2="275" y2= "259.806" />
    <line class="fil1" x1="225" y1="259.806" x2="250" y2= "216.505" />
    <line class="fil1" x1="250" y1="216.505" x2="275" y2= "259.806" />
   </g>
   <g>
    <line class="fil1" x1="200" y1="216.505" x2="250" y2= "216.505" />
    <line class="fil1" x1="200" y1="216.505" x2="225" y2= "259.806" />
    <line class="fil1" x1="225" y1="259.806" x2="250" y2= "216.505" />
   </g>
   <g>
    <line class="fil1" x1="300" y1="216.505" x2="350" y2= "216.505" />
    <line class="fil1" x1="300" y1="216.505" x2="325" y2= "259.806" />
    <line class="fil1" x1="325" y1="259.806" x2="350" y2= "216.505" />
   </g>
   <g>
    <line class="fil1" x1="350" y1="389.71" x2="400" y2= "389.71" />
    <line class="fil1" x1="350" y1="389.71" x2="375" y2= "433.011" />
    <line class="fil1" x1="375" y1="433.011" x2="400" y2= "389.71" />
   </g>
   <g>
    <line class="fil1" x1="350" y1="389.71" x2="400" y2= "389.71" />
    <line class="fil1" x1="350" y1="389.71" x2="375" y2= "346.409" />
    <line class="fil1" x1="375" y1="346.409" x2="400" y2= "389.71" />
   </g>
   <g>
    <line class="fil1" x1="325" y1="346.409" x2="375" y2= "346.409" />
    <line class="fil1" x1="325" y1="346.409" x2="350" y2= "389.71" />
    <line class="fil1" x1="350" y1="389.71" x2="375" y2= "346.409" />
   </g>
   <g>
    <line class="fil1" x1="325" y1="346.409" x2="375" y2= "346.409" />
    <line class="fil1" x1="325" y1="346.409" x2="350" y2= "303.107" />
    <line class="fil1" x1="350" y1="303.107" x2="375" y2= "346.409" />
   </g>
   <g>
    <line class="fil1" x1="300" y1="303.107" x2="350" y2= "303.107" />
    <line class="fil1" x1="300" y1="303.107" x2="325" y2= "346.409" />
    <line class="fil1" x1="325" y1="346.409" x2="350" y2= "303.107" />
   </g>
   <g>
    <line class="fil1" x1="300" y1="303.107" x2="350" y2= "303.107" />
    <line class="fil1" x1="300" y1="303.107" x2="325" y2= "259.806" />
    <line class="fil1" x1="325" y1="259.806" x2="350" y2= "303.107" />
   </g>
   <g>
    <line class="fil1" x1="275" y1="259.806" x2="325" y2= "259.806" />
    <line class="fil1" x1="275" y1="259.806" x2="300" y2= "303.107" />
    <line class="fil1" x1="300" y1="303.107" x2="325" y2= "259.806" />
   </g>
   <g>
    <line class="fil1" x1="275" y1="259.806" x2="325" y2= "259.806" />
    <line class="fil1" x1="275" y1="259.806" x2="300" y2= "216.505" />
    <line class="fil1" x1="300" y1="216.505" x2="325" y2= "259.806" />
   </g>
   <g>
    <line class="fil1" x1="250" y1="216.505" x2="300" y2= "216.505" />
    <line class="fil1" x1="250" y1="216.505" x2="275" y2= "259.806" />
    <line class="fil1" x1="275" y1="259.806" x2="300" y2= "216.505" />
   </g>
   <g>
    <line class="fil1" x1="375" y1="346.409" x2="425.001" y2= "346.409" />
    <line class="fil1" x1="375" y1="346.409" x2="400" y2= "389.71" />
    <line class="fil1" x1="400" y1="389.71" x2="425.001" y2= "346.409" />
   </g>
   <g>
    <line class="fil1" x1="375" y1="346.409" x2="425.001" y2= "346.409" />
    <line class="fil1" x1="375" y1="346.409" x2="400" y2= "303.107" />
    <line class="fil1" x1="400" y1="303.107" x2="425.001" y2= "346.409" />
   </g>
   <g>
    <line class="fil1" x1="400" y1="303.107" x2="450.001" y2= "303.107" />
    <line class="fil1" x1="400" y1="303.107" x2="425.001" y2= "346.409" />
    <line class="fil1" x1="425.001" y1="346.409" x2="450.001" y2= "303.107" />
   </g>
   <g>
    <line class="fil1" x1="400" y1="303.107" x2="450.001" y2= "303.107" />
    <line class="fil1" x1="400" y1="303.107" x2="425.001" y2= "259.806" />
    <line class="fil1" x1="425.001" y1="259.806" x2="450.001" y2= "303.107" />
   </g>
   <g>
    <line class="fil1" x1="425.001" y1="259.806" x2="475.001" y2= "259.806" />
    <line class="fil1" x1="425.001" y1="259.806" x2="450.001" y2= "303.107" />
    <line class="fil1" x1="450.001" y1="303.107" x2="475.001" y2= "259.806" />
   </g>
   <g>
    <line class="fil1" x1="425.001" y1="259.806" x2="475.001" y2= "259.806" />
    <line class="fil1" x1="425.001" y1="259.806" x2="450.001" y2= "216.505" />
    <line class="fil1" x1="450.001" y1="216.505" x2="475.001" y2= "259.806" />
   </g>
   <g>
    <line class="fil1" x1="450.001" y1="216.505" x2="500.001" y2= "216.505" />
    <line class="fil1" x1="450.001" y1="216.505" x2="475.001" y2= "259.806" />
    <line class="fil1" x1="475.001" y1="259.806" x2="500.001" y2= "216.505" />
   </g>
   <g>
    <line class="fil1" x1="350" y1="303.107" x2="400" y2= "303.107" />
    <line class="fil1" x1="350" y1="303.107" x2="375" y2= "259.806" />
    <line class="fil1" x1="375" y1="259.806" x2="400" y2= "303.107" />
   </g>
   <g>
    <line class="fil1" x1="350" y1="303.107" x2="400" y2= "303.107" />
    <line class="fil1" x1="350" y1="303.107" x2="375" y2= "346.409" />
    <line class="fil1" x1="375" y1="346.409" x2="400" y2= "303.107" />
   </g>
   <g>
    <line class="fil1" x1="325" y1="259.806" x2="375" y2= "259.806" />
    <line class="fil1" x1="325" y1="259.806" x2="350" y2= "216.505" />
    <line class="fil1" x1="350" y1="216.505" x2="375" y2= "259.806" />
   </g>
   <g>
    <line class="fil1" x1="350" y1="216.505" x2="400" y2= "216.505" />
    <line class="fil1" x1="350" y1="216.505" x2="375" y2= "259.806" />
    <line class="fil1" x1="375" y1="259.806" x2="400" y2= "216.505" />
   </g>
   <g>
    <line class="fil1" x1="375" y1="259.806" x2="425.001" y2= "259.806" />
    <line class="fil1" x1="375" y1="259.806" x2="400" y2= "303.107" />
    <line class="fil1" x1="400" y1="303.107" x2="425.001" y2= "259.806" />
   </g>
   <g>
    <line class="fil1" x1="325" y1="259.806" x2="375" y2= "259.806" />
    <line class="fil1" x1="325" y1="259.806" x2="350" y2= "303.107" />
    <line class="fil1" x1="350" y1="303.107" x2="375" y2= "259.806" />
   </g>
   <g>
    <line class="fil1" x1="375" y1="259.806" x2="425.001" y2= "259.806" />
    <line class="fil1" x1="375" y1="259.806" x2="400" y2= "216.505" />
    <line class="fil1" x1="400" y1="216.505" x2="425.001" y2= "259.806" />
   </g>
   <g>
    <line class="fil1" x1="400" y1="216.505" x2="450.001" y2= "216.505" />
    <line class="fil1" x1="400" y1="216.505" x2="425.001" y2= "259.806" />
    <line class="fil1" x1="425.001" y1="259.806" x2="450.001" y2= "216.505" />
   </g>
   <g>
    <line class="fil1" x1="124.999" y1="-0.001" x2="174.999" y2= "-0.001" />
    <line class="fil1" x1="124.999" y1="-0.001" x2="149.999" y2= "43.3" />
    <line class="fil1" x1="149.999" y1="43.3" x2="174.999" y2= "-0.001" />
   </g>
   <g>
    <line class="fil1" x1="99.999" y1="43.3" x2="149.999" y2= "43.3" />
    <line class="fil1" x1="99.999" y1="43.3" x2="124.999" y2= "-0.001" />
    <line class="fil1" x1="124.999" y1="-0.001" x2="149.999" y2= "43.3" />
   </g>
   <g>
    <line class="fil1" x1="99.999" y1="43.3" x2="149.999" y2= "43.3" />
    <line class="fil1" x1="99.999" y1="43.3" x2="124.999" y2= "86.601" />
    <line class="fil1" x1="124.999" y1="86.601" x2="149.999" y2= "43.3" />
   </g>
   <g>
    <line class="fil1" x1="74.999" y1="86.601" x2="124.999" y2= "86.601" />
    <line class="fil1" x1="74.999" y1="86.601" x2="99.999" y2= "43.3" />
    <line class="fil1" x1="99.999" y1="43.3" x2="124.999" y2= "86.601" />
   </g>
   <g>
    <line class="fil1" x1="74.999" y1="86.601" x2="124.999" y2= "86.601" />
    <line class="fil1" x1="74.999" y1="86.601" x2="99.999" y2= "129.903" />
    <line class="fil1" x1="99.999" y1="129.903" x2="124.999" y2= "86.601" />
   </g>
   <g>
    <line class="fil1" x1="49.999" y1="129.903" x2="99.999" y2= "129.903" />
    <line class="fil1" x1="49.999" y1="129.903" x2="74.999" y2= "86.601" />
    <line class="fil1" x1="74.999" y1="86.601" x2="99.999" y2= "129.903" />
   </g>
   <g>
    <line class="fil1" x1="49.999" y1="129.903" x2="99.999" y2= "129.903" />
    <line class="fil1" x1="49.999" y1="129.903" x2="74.999" y2= "173.204" />
    <line class="fil1" x1="74.999" y1="173.204" x2="99.999" y2= "129.903" />
   </g>
   <g>
    <line class="fil1" x1="24.999" y1="173.204" x2="74.999" y2= "173.204" />
    <line class="fil1" x1="24.999" y1="173.204" x2="49.999" y2= "129.903" />
    <line class="fil1" x1="49.999" y1="129.903" x2="74.999" y2= "173.204" />
   </g>
   <g>
    <line class="fil1" x1="24.999" y1="173.204" x2="74.999" y2= "173.204" />
    <line class="fil1" x1="24.999" y1="173.204" x2="49.999" y2= "216.505" />
    <line class="fil1" x1="49.999" y1="216.505" x2="74.999" y2= "173.204" />
   </g>
   <g>
    <line class="fil1" x1="-0.001" y1="216.505" x2="49.999" y2= "216.505" />
    <line class="fil1" x1="-0.001" y1="216.505" x2="24.999" y2= "173.204" />
    <line class="fil1" x1="24.999" y1="173.204" x2="49.999" y2= "216.505" />
   </g>
   <g>
    <line class="fil1" x1="174.999" y1="-0.001" x2="225" y2= "-0.001" />
    <line class="fil1" x1="174.999" y1="-0.001" x2="199.999" y2= "43.3" />
    <line class="fil1" x1="199.999" y1="43.3" x2="225" y2= "-0.001" />
   </g>
   <g>
    <line class="fil1" x1="149.999" y1="43.3" x2="199.999" y2= "43.3" />
    <line class="fil1" x1="149.999" y1="43.3" x2="174.999" y2= "-0.001" />
    <line class="fil1" x1="174.999" y1="-0.001" x2="199.999" y2= "43.3" />
   </g>
   <g>
    <line class="fil1" x1="149.999" y1="43.3" x2="199.999" y2= "43.3" />
    <line class="fil1" x1="149.999" y1="43.3" x2="174.999" y2= "86.601" />
    <line class="fil1" x1="174.999" y1="86.601" x2="199.999" y2= "43.3" />
   </g>
   <g>
    <line class="fil1" x1="124.999" y1="86.601" x2="174.999" y2= "86.601" />
    <line class="fil1" x1="124.999" y1="86.601" x2="149.999" y2= "43.3" />
    <line class="fil1" x1="149.999" y1="43.3" x2="174.999" y2= "86.601" />
   </g>
   <g>
    <line class="fil1" x1="124.999" y1="86.601" x2="174.999" y2= "86.601" />
    <line class="fil1" x1="124.999" y1="86.601" x2="149.999" y2= "129.903" />
    <line class="fil1" x1="149.999" y1="129.903" x2="174.999" y2= "86.601" />
   </g>
   <g>
    <line class="fil1" x1="99.999" y1="129.903" x2="149.999" y2= "129.903" />
    <line class="fil1" x1="99.999" y1="129.903" x2="124.999" y2= "86.601" />
    <line class="fil1" x1="124.999" y1="86.601" x2="149.999" y2= "129.903" />
   </g>
   <g>
    <line class="fil1" x1="99.999" y1="129.903" x2="149.999" y2= "129.903" />
    <line class="fil1" x1="99.999" y1="129.903" x2="124.999" y2= "173.204" />
    <line class="fil1" x1="124.999" y1="173.204" x2="149.999" y2= "129.903" />
   </g>
   <g>
    <line class="fil1" x1="74.999" y1="173.204" x2="124.999" y2= "173.204" />
    <line class="fil1" x1="74.999" y1="173.204" x2="99.999" y2= "129.903" />
    <line class="fil1" x1="99.999" y1="129.903" x2="124.999" y2= "173.204" />
   </g>
   <g>
    <line class="fil1" x1="74.999" y1="173.204" x2="124.999" y2= "173.204" />
    <line class="fil1" x1="74.999" y1="173.204" x2="99.999" y2= "216.505" />
    <line class="fil1" x1="99.999" y1="216.505" x2="124.999" y2= "173.204" />
   </g>
   <g>
    <line class="fil1" x1="49.999" y1="216.505" x2="99.999" y2= "216.505" />
    <line class="fil1" x1="49.999" y1="216.505" x2="74.999" y2= "173.204" />
    <line class="fil1" x1="74.999" y1="173.204" x2="99.999" y2= "216.505" />
   </g>
   <g>
    <line class="fil1" x1="225" y1="-0.001" x2="275" y2= "-0.001" />
    <line class="fil1" x1="225" y1="-0.001" x2="250" y2= "43.3" />
    <line class="fil1" x1="250" y1="43.3" x2="275" y2= "-0.001" />
   </g>
   <g>
    <line class="fil1" x1="199.999" y1="43.3" x2="250" y2= "43.3" />
    <line class="fil1" x1="199.999" y1="43.3" x2="225" y2= "-0.001" />
    <line class="fil1" x1="225" y1="-0.001" x2="250" y2= "43.3" />
   </g>
   <g>
    <line class="fil1" x1="199.999" y1="43.3" x2="250" y2= "43.3" />
    <line class="fil1" x1="199.999" y1="43.3" x2="225" y2= "86.601" />
    <line class="fil1" x1="225" y1="86.601" x2="250" y2= "43.3" />
   </g>
   <g>
    <line class="fil1" x1="174.999" y1="86.601" x2="225" y2= "86.601" />
    <line class="fil1" x1="174.999" y1="86.601" x2="199.999" y2= "43.3" />
    <line class="fil1" x1="199.999" y1="43.3" x2="225" y2= "86.601" />
   </g>
   <g>
    <line class="fil1" x1="174.999" y1="86.601" x2="225" y2= "86.601" />
    <line class="fil1" x1="174.999" y1="86.601" x2="199.999" y2= "129.903" />
    <line class="fil1" x1="199.999" y1="129.903" x2="225" y2= "86.601" />
   </g>
   <g>
    <line class="fil1" x1="149.999" y1="129.903" x2="199.999" y2= "129.903" />
    <line class="fil1" x1="149.999" y1="129.903" x2="174.999" y2= "86.601" />
    <line class="fil1" x1="174.999" y1="86.601" x2="199.999" y2= "129.903" />
   </g>
   <g>
    <line class="fil1" x1="149.999" y1="129.903" x2="199.999" y2= "129.903" />
    <line class="fil1" x1="149.999" y1="129.903" x2="174.999" y2= "173.204" />
    <line class="fil1" x1="174.999" y1="173.204" x2="199.999" y2= "129.903" />
   </g>
   <g>
    <line class="fil1" x1="124.999" y1="173.204" x2="174.999" y2= "173.204" />
    <line class="fil1" x1="124.999" y1="173.204" x2="149.999" y2= "129.903" />
    <line class="fil1" x1="149.999" y1="129.903" x2="174.999" y2= "173.204" />
   </g>
   <g>
    <line class="fil1" x1="124.999" y1="173.204" x2="174.999" y2= "173.204" />
    <line class="fil1" x1="124.999" y1="173.204" x2="149.999" y2= "216.505" />
    <line class="fil1" x1="149.999" y1="216.505" x2="174.999" y2= "173.204" />
   </g>
   <g>
    <line class="fil1" x1="99.999" y1="216.505" x2="149.999" y2= "216.505" />
    <line class="fil1" x1="99.999" y1="216.505" x2="124.999" y2= "173.204" />
    <line class="fil1" x1="124.999" y1="173.204" x2="149.999" y2= "216.505" />
   </g>
   <g>
    <line class="fil1" x1="275" y1="-0.001" x2="325" y2= "-0.001" />
    <line class="fil1" x1="275" y1="-0.001" x2="300" y2= "43.3" />
    <line class="fil1" x1="300" y1="43.3" x2="325" y2= "-0.001" />
   </g>
   <g>
    <line class="fil1" x1="250" y1="43.3" x2="300" y2= "43.3" />
    <line class="fil1" x1="250" y1="43.3" x2="275" y2= "-0.001" />
    <line class="fil1" x1="275" y1="-0.001" x2="300" y2= "43.3" />
   </g>
   <g>
    <line class="fil1" x1="250" y1="43.3" x2="300" y2= "43.3" />
    <line class="fil1" x1="250" y1="43.3" x2="275" y2= "86.601" />
    <line class="fil1" x1="275" y1="86.601" x2="300" y2= "43.3" />
   </g>
   <g>
    <line class="fil1" x1="225" y1="86.601" x2="275" y2= "86.601" />
    <line class="fil1" x1="225" y1="86.601" x2="250" y2= "43.3" />
    <line class="fil1" x1="250" y1="43.3" x2="275" y2= "86.601" />
   </g>
   <g>
    <line class="fil1" x1="225" y1="86.601" x2="275" y2= "86.601" />
    <line class="fil1" x1="225" y1="86.601" x2="250" y2= "129.903" />
    <line class="fil1" x1="250" y1="129.903" x2="275" y2= "86.601" />
   </g>
   <g>
    <line class="fil1" x1="199.999" y1="129.903" x2="250" y2= "129.903" />
    <line class="fil1" x1="199.999" y1="129.903" x2="225" y2= "86.601" />
    <line class="fil1" x1="225" y1="86.601" x2="250" y2= "129.903" />
   </g>
   <g>
    <line class="fil1" x1="199.999" y1="129.903" x2="250" y2= "129.903" />
    <line class="fil1" x1="199.999" y1="129.903" x2="225" y2= "173.204" />
    <line class="fil1" x1="225" y1="173.204" x2="250" y2= "129.903" />
   </g>
   <g>
    <line class="fil1" x1="174.999" y1="173.204" x2="225" y2= "173.204" />
    <line class="fil1" x1="174.999" y1="173.204" x2="199.999" y2= "129.903" />
    <line class="fil1" x1="199.999" y1="129.903" x2="225" y2= "173.204" />
   </g>
   <g>
    <line class="fil1" x1="174.999" y1="173.204" x2="225" y2= "173.204" />
    <line class="fil1" x1="174.999" y1="173.204" x2="199.999" y2= "216.505" />
    <line class="fil1" x1="199.999" y1="216.505" x2="225" y2= "173.204" />
   </g>
   <g>
    <line class="fil1" x1="149.999" y1="216.505" x2="199.999" y2= "216.505" />
    <line class="fil1" x1="149.999" y1="216.505" x2="174.999" y2= "173.204" />
    <line class="fil1" x1="174.999" y1="173.204" x2="199.999" y2= "216.505" />
   </g>
   <g>
    <line class="fil1" x1="325" y1="-0.001" x2="375" y2= "-0.001" />
    <line class="fil1" x1="325" y1="-0.001" x2="350" y2= "43.3" />
    <line class="fil1" x1="350" y1="43.3" x2="375" y2= "-0.001" />
   </g>
   <g>
    <line class="fil1" x1="300" y1="43.3" x2="350" y2= "43.3" />
    <line class="fil1" x1="300" y1="43.3" x2="325" y2= "-0.001" />
    <line class="fil1" x1="325" y1="-0.001" x2="350" y2= "43.3" />
   </g>
   <g>
    <line class="fil1" x1="300" y1="43.3" x2="350" y2= "43.3" />
    <line class="fil1" x1="300" y1="43.3" x2="325" y2= "86.601" />
    <line class="fil1" x1="325" y1="86.601" x2="350" y2= "43.3" />
   </g>
   <g>
    <line class="fil1" x1="275" y1="86.601" x2="325" y2= "86.601" />
    <line class="fil1" x1="275" y1="86.601" x2="300" y2= "43.3" />
    <line class="fil1" x1="300" y1="43.3" x2="325" y2= "86.601" />
   </g>
   <g>
    <line class="fil1" x1="275" y1="86.601" x2="325" y2= "86.601" />
    <line class="fil1" x1="275" y1="86.601" x2="300" y2= "129.903" />
    <line class="fil1" x1="300" y1="129.903" x2="325" y2= "86.601" />
   </g>
   <g>
    <line class="fil1" x1="250" y1="129.903" x2="300" y2= "129.903" />
    <line class="fil1" x1="250" y1="129.903" x2="275" y2= "86.601" />
    <line class="fil1" x1="275" y1="86.601" x2="300" y2= "129.903" />
   </g>
   <g>
    <line class="fil1" x1="250" y1="129.903" x2="300" y2= "129.903" />
    <line class="fil1" x1="250" y1="129.903" x2="275" y2= "173.204" />
    <line class="fil1" x1="275" y1="173.204" x2="300" y2= "129.903" />
   </g>
   <g>
    <line class="fil1" x1="225" y1="173.204" x2="275" y2= "173.204" />
    <line class="fil1" x1="225" y1="173.204" x2="250" y2= "129.903" />
    <line class="fil1" x1="250" y1="129.903" x2="275" y2= "173.204" />
   </g>
   <g>
    <line class="fil1" x1="225" y1="173.204" x2="275" y2= "173.204" />
    <line class="fil1" x1="225" y1="173.204" x2="250" y2= "216.505" />
    <line class="fil1" x1="250" y1="216.505" x2="275" y2= "173.204" />
   </g>
   <g>
    <line class="fil1" x1="199.999" y1="216.505" x2="250" y2= "216.505" />
    <line class="fil1" x1="199.999" y1="216.505" x2="225" y2= "173.204" />
    <line class="fil1" x1="225" y1="173.204" x2="250" y2= "216.505" />
   </g>
   <g>
    <line class="fil1" x1="300" y1="216.505" x2="350" y2= "216.505" />
    <line class="fil1" x1="300" y1="216.505" x2="325" y2= "173.204" />
    <line class="fil1" x1="325" y1="173.204" x2="350" y2= "216.505" />
   </g>
   <g>
    <line class="fil1" x1="350" y1="43.3" x2="400" y2= "43.3" />
    <line class="fil1" x1="350" y1="43.3" x2="375" y2= "-0.001" />
    <line class="fil1" x1="375" y1="-0.001" x2="400" y2= "43.3" />
   </g>
   <g>
    <line class="fil1" x1="350" y1="43.3" x2="400" y2= "43.3" />
    <line class="fil1" x1="350" y1="43.3" x2="375" y2= "86.601" />
    <line class="fil1" x1="375" y1="86.601" x2="400" y2= "43.3" />
   </g>
   <g>
    <line class="fil1" x1="325" y1="86.601" x2="375" y2= "86.601" />
    <line class="fil1" x1="325" y1="86.601" x2="350" y2= "43.3" />
    <line class="fil1" x1="350" y1="43.3" x2="375" y2= "86.601" />
   </g>
   <g>
    <line class="fil1" x1="325" y1="86.601" x2="375" y2= "86.601" />
    <line class="fil1" x1="325" y1="86.601" x2="350" y2= "129.903" />
    <line class="fil1" x1="350" y1="129.903" x2="375" y2= "86.601" />
   </g>
   <g>
    <line class="fil1" x1="300" y1="129.903" x2="350" y2= "129.903" />
    <line class="fil1" x1="300" y1="129.903" x2="325" y2= "86.601" />
    <line class="fil1" x1="325" y1="86.601" x2="350" y2= "129.903" />
   </g>
   <g>
    <line class="fil1" x1="300" y1="129.903" x2="350" y2= "129.903" />
    <line class="fil1" x1="300" y1="129.903" x2="325" y2= "173.204" />
    <line class="fil1" x1="325" y1="173.204" x2="350" y2= "129.903" />
   </g>
   <g>
    <line class="fil1" x1="275" y1="173.204" x2="325" y2= "173.204" />
    <line class="fil1" x1="275" y1="173.204" x2="300" y2= "129.903" />
    <line class="fil1" x1="300" y1="129.903" x2="325" y2= "173.204" />
   </g>
   <g>
    <line class="fil1" x1="275" y1="173.204" x2="325" y2= "173.204" />
    <line class="fil1" x1="275" y1="173.204" x2="300" y2= "216.505" />
    <line class="fil1" x1="300" y1="216.505" x2="325" y2= "173.204" />
   </g>
   <g>
    <line class="fil1" x1="250" y1="216.505" x2="300" y2= "216.505" />
    <line class="fil1" x1="250" y1="216.505" x2="275" y2= "173.204" />
    <line class="fil1" x1="275" y1="173.204" x2="300" y2= "216.505" />
   </g>
   <g>
    <line class="fil1" x1="375" y1="86.601" x2="425" y2= "86.601" />
    <line class="fil1" x1="375" y1="86.601" x2="400" y2= "43.3" />
    <line class="fil1" x1="400" y1="43.3" x2="425" y2= "86.601" />
   </g>
   <g>
    <line class="fil1" x1="375" y1="86.601" x2="425" y2= "86.601" />
    <line class="fil1" x1="375" y1="86.601" x2="400" y2= "129.903" />
    <line class="fil1" x1="400" y1="129.903" x2="425" y2= "86.601" />
   </g>
   <g>
    <line class="fil1" x1="400" y1="129.903" x2="450" y2= "129.903" />
    <line class="fil1" x1="400" y1="129.903" x2="425" y2= "86.601" />
    <line class="fil1" x1="425" y1="86.601" x2="450" y2= "129.903" />
   </g>
   <g>
    <line class="fil1" x1="400" y1="129.903" x2="450" y2= "129.903" />
    <line class="fil1" x1="400" y1="129.903" x2="425" y2= "173.204" />
    <line class="fil1" x1="425" y1="173.204" x2="450" y2= "129.903" />
   </g>
   <g>
    <line class="fil1" x1="425" y1="173.204" x2="475" y2= "173.204" />
    <line class="fil1" x1="425" y1="173.204" x2="450" y2= "129.903" />
    <line class="fil1" x1="450" y1="129.903" x2="475" y2= "173.204" />
   </g>
   <g>
    <line class="fil1" x1="425" y1="173.204" x2="475" y2= "173.204" />
    <line class="fil1" x1="425" y1="173.204" x2="450" y2= "216.505" />
    <line class="fil1" x1="450" y1="216.505" x2="475" y2= "173.204" />
   </g>
   <g>
    <line class="fil1" x1="450" y1="216.505" x2="500" y2= "216.505" />
    <line class="fil1" x1="450" y1="216.505" x2="475" y2= "173.204" />
    <line class="fil1" x1="475" y1="173.204" x2="500" y2= "216.505" />
   </g>
   <g>
    <line class="fil1" x1="350" y1="129.903" x2="400" y2= "129.903" />
    <line class="fil1" x1="350" y1="129.903" x2="375" y2= "173.204" />
    <line class="fil1" x1="375" y1="173.204" x2="400" y2= "129.903" />
   </g>
   <g>
    <line class="fil1" x1="350" y1="129.903" x2="400" y2= "129.903" />
    <line class="fil1" x1="350" y1="129.903" x2="375" y2= "86.601" />
    <line class="fil1" x1="375" y1="86.601" x2="400" y2= "129.903" />
   </g>
   <g>
    <line class="fil1" x1="325" y1="173.204" x2="375" y2= "173.204" />
    <line class="fil1" x1="325" y1="173.204" x2="350" y2= "216.505" />
    <line class="fil1" x1="350" y1="216.505" x2="375" y2= "173.204" />
   </g>
   <g>
    <line class="fil1" x1="350" y1="216.505" x2="400" y2= "216.505" />
    <line class="fil1" x1="350" y1="216.505" x2="375" y2= "173.204" />
    <line class="fil1" x1="375" y1="173.204" x2="400" y2= "216.505" />
   </g>
   <g>
    <line class="fil1" x1="375" y1="173.204" x2="425" y2= "173.204" />
    <line class="fil1" x1="375" y1="173.204" x2="400" y2= "129.903" />
    <line class="fil1" x1="400" y1="129.903" x2="425" y2= "173.204" />
   </g>
   <g>
    <line class="fil1" x1="325" y1="173.204" x2="375" y2= "173.204" />
    <line class="fil1" x1="325" y1="173.204" x2="350" y2= "129.903" />
    <line class="fil1" x1="350" y1="129.903" x2="375" y2= "173.204" />
   </g>
   <g>
    <line class="fil1" x1="375" y1="173.204" x2="425" y2= "173.204" />
    <line class="fil1" x1="375" y1="173.204" x2="400" y2= "216.505" />
    <line class="fil1" x1="400" y1="216.505" x2="425" y2= "173.204" />
   </g>
   <g>
    <line class="fil1" x1="400" y1="216.505" x2="450" y2= "216.505" />
    <line class="fil1" x1="400" y1="216.505" x2="425" y2= "173.204" />
    <line class="fil1" x1="425" y1="173.204" x2="450" y2= "216.505" />
   </g>
   <polygon class="fil2" points="125,433.011 150,389.71 100,389.71 "/>
   <polygon class="fil2" points="125,433.011 175,433.011 150,389.71 "/>
   <polygon class="fil2" points="100,389.71 125,346.409 74.999,346.409 "/>
   <polygon class="fil2" points="100,389.71 150,389.71 125,346.409 "/>
   <polygon class="fil2" points="74.999,346.409 100,303.107 49.999,303.107 "/>
   <polygon class="fil2" points="74.999,346.409 125,346.409 100,303.107 "/>
   <polygon class="fil2" points="49.999,303.107 74.999,259.806 24.999,259.806 "/>
   <polygon class="fil2" points="49.999,303.107 100,303.107 74.999,259.806 "/>
   <polygon class="fil2" points="24.999,259.806 49.999,216.505 -0.001,216.505 "/>
   <polygon class="fil2" points="24.999,259.806 74.999,259.806 49.999,216.505 "/>
   <polygon class="fil2" points="-0.001,216.505 49.999,216.505 24.999,173.203 "/>
   <polygon class="fil2" points="178.75,430.846 223.75,430.846 201.25,391.875 "/>
   <polygon class="fil2" points="153.75,387.545 198.75,387.545 176.25,348.574 "/>
   <polygon class="fil2" points="176.25,430.846 198.75,391.875 153.75,391.875 "/>
   <polygon class="fil2" points="128.75,344.244 173.75,344.244 151.25,305.273 "/>
   <polygon class="fil2" points="151.25,387.545 173.75,348.574 128.75,348.574 "/>
   <polygon class="fil2" points="103.75,300.942 148.75,300.942 126.25,261.971 "/>
   <polygon class="fil2" points="126.25,344.244 148.75,305.273 103.75,305.273 "/>
   <polygon class="fil2" points="78.75,257.641 123.75,257.641 101.25,218.67 "/>
   <polygon class="fil2" points="101.25,300.942 123.75,261.971 78.75,261.971 "/>
   <polygon class="fil2" points="53.749,214.341 98.749,214.341 76.249,175.369 "/>
   <polygon class="fil2" points="76.249,257.641 98.749,218.67 53.749,218.67 "/>
   <polygon class="fil2" points="28.749,171.039 73.749,171.039 51.249,132.068 "/>
   <polygon class="fil2" points="51.249,214.34 73.749,175.369 28.749,175.369 "/>
   <polygon class="fil2" points="232.5,428.681 272.5,428.681 252.5,394.04 "/>
   <polygon class="fil2" points="207.5,385.38 247.5,385.38 227.5,350.739 "/>
   <polygon class="fil2" points="227.5,428.681 247.499,394.04 207.5,394.04 "/>
   <polygon class="fil2" points="182.5,342.079 222.5,342.079 202.5,307.438 "/>
   <polygon class="fil2" points="202.5,385.38 222.5,350.739 182.5,350.739 "/>
   <polygon class="fil2" points="157.5,298.777 197.5,298.777 177.5,264.136 "/>
   <polygon class="fil2" points="177.5,342.079 197.5,307.438 157.5,307.438 "/>
   <polygon class="fil2" points="132.5,255.476 172.5,255.476 152.5,220.835 "/>
   <polygon class="fil2" points="152.5,298.777 172.5,264.136 132.5,264.136 "/>
   <polygon class="fil2" points="107.5,212.175 147.5,212.175 127.5,177.534 "/>
   <polygon class="fil2" points="127.5,255.476 147.5,220.835 107.5,220.835 "/>
   <polygon class="fil2" points="82.5,168.874 122.499,168.874 102.499,134.233 "/>
   <polygon class="fil2" points="102.499,212.176 122.499,177.534 82.499,177.534 "/>
   <polygon class="fil2" points="57.499,125.573 97.499,125.573 77.499,90.932 "/>
   <polygon class="fil2" points="77.499,168.874 97.499,134.233 57.499,134.233 "/>
   <polygon class="fil2" points="286.25,426.516 321.25,426.516 303.75,396.205 "/>
   <polygon class="fil2" points="278.75,426.516 296.25,396.205 261.25,396.205 "/>
   <polygon class="fil2" points="261.25,383.214 296.25,383.214 278.75,352.904 "/>
   <polygon class="fil2" points="253.75,383.214 271.25,352.904 236.25,352.904 "/>
   <polygon class="fil2" points="236.25,339.913 271.25,339.913 253.75,309.602 "/>
   <polygon class="fil2" points="228.75,339.913 246.25,309.603 211.25,309.603 "/>
   <polygon class="fil2" points="211.25,296.612 246.25,296.612 228.75,266.301 "/>
   <polygon class="fil2" points="203.75,296.612 221.25,266.301 186.25,266.301 "/>
   <polygon class="fil2" points="186.25,253.311 221.25,253.311 203.75,223 "/>
   <polygon class="fil2" points="178.75,253.311 196.25,223 161.25,223 "/>
   <polygon class="fil2" points="161.25,210.01 196.25,210.01 178.75,179.699 "/>
   <polygon class="fil2" points="153.749,210.01 171.249,179.7 136.249,179.7 "/>
   <polygon class="fil2" points="136.249,166.709 171.249,166.709 153.749,136.398 "/>
   <polygon class="fil2" points="128.749,166.709 146.249,136.398 111.249,136.398 "/>
   <polygon class="fil2" points="111.249,123.407 146.249,123.407 128.749,93.097 "/>
   <polygon class="fil2" points="103.749,123.407 121.249,93.097 86.249,93.097 "/>
   <polygon class="fil2" points="86.249,80.106 121.249,80.106 103.749,49.795 "/>
   <polygon class="fil2" points="330,424.351 345,398.37 315,398.37 "/>
   <polygon class="fil2" points="315,381.05 345,381.05 330,355.069 "/>
   <polygon class="fil2" points="305,381.05 320,355.069 290,355.069 "/>
   <polygon class="fil2" points="290.001,337.748 320.001,337.748 305,311.768 "/>
   <polygon class="fil2" points="280,337.748 295,311.768 265,311.768 "/>
   <polygon class="fil2" points="265.001,294.447 295.001,294.447 280,268.466 "/>
   <polygon class="fil2" points="255,294.447 270,268.466 240,268.466 "/>
   <polygon class="fil2" points="240,251.146 270.001,251.146 255,225.165 "/>
   <polygon class="fil2" points="230,251.146 245,225.165 215,225.165 "/>
   <polygon class="fil2" points="215,207.844 245,207.844 230,181.864 "/>
   <polygon class="fil2" points="204.999,207.845 219.999,181.865 189.999,181.865 "/>
   <polygon class="fil2" points="189.999,164.544 219.999,164.544 204.999,138.563 "/>
   <polygon class="fil2" points="179.999,164.544 194.999,138.563 164.999,138.563 "/>
   <polygon class="fil2" points="164.999,121.242 194.999,121.242 179.999,95.262 "/>
   <polygon class="fil2" points="154.999,121.242 169.999,95.262 139.999,95.262 "/>
   <polygon class="fil2" points="139.999,77.941 169.999,77.941 154.999,51.961 "/>
   <polygon class="fil2" points="129.999,77.941 144.999,51.961 114.999,51.961 "/>
   <polygon class="fil2" points="114.999,34.64 144.999,34.64 129.999,8.659 "/>
   <polygon class="fil2" points="340.001,424.351 370.001,424.351 355.001,398.37 "/>
   <polygon class="fil2" points="381.25,422.186 393.75,400.536 368.75,400.536 "/>
   <polygon class="fil2" points="368.75,378.885 393.75,378.885 381.25,357.234 "/>
   <polygon class="fil2" points="356.251,378.885 368.751,357.234 343.75,357.234 "/>
   <polygon class="fil2" points="343.75,335.583 368.751,335.583 356.251,313.933 "/>
   <polygon class="fil2" points="331.25,335.583 343.75,313.933 318.75,313.933 "/>
   <polygon class="fil2" points="318.75,292.282 343.75,292.282 331.25,270.632 "/>
   <polygon class="fil2" points="306.25,292.282 318.75,270.632 293.75,270.632 "/>
   <polygon class="fil2" points="293.75,248.98 318.75,248.98 306.25,227.33 "/>
   <polygon class="fil2" points="281.25,248.981 293.75,227.33 268.75,227.33 "/>
   <polygon class="fil2" points="268.75,205.679 293.75,205.679 281.25,184.029 "/>
   <polygon class="fil2" points="256.25,205.68 268.75,184.03 243.75,184.03 "/>
   <polygon class="fil2" points="243.75,162.378 268.75,162.378 256.25,140.728 "/>
   <polygon class="fil2" points="231.25,162.378 243.75,140.728 218.75,140.728 "/>
   <polygon class="fil2" points="218.75,119.077 243.75,119.077 231.25,97.426 "/>
   <polygon class="fil2" points="206.249,119.077 218.749,97.427 193.749,97.427 "/>
   <polygon class="fil2" points="193.749,75.775 218.749,75.775 206.249,54.125 "/>
   <polygon class="fil2" points="181.249,75.775 193.749,54.126 168.749,54.126 "/>
   <polygon class="fil2" points="168.749,32.474 193.749,32.474 181.249,10.824 "/>
   <polygon class="fil2" points="156.249,32.475 168.749,10.825 143.749,10.825 "/>
   <polygon class="fil2" points="407.501,376.719 417.5,359.399 397.5,359.399 "/>
   <polygon class="fil2" points="397.501,333.418 417.5,333.418 407.501,316.098 "/>
   <polygon class="fil2" points="382.5,333.418 392.5,316.098 372.5,316.098 "/>
   <polygon class="fil2" points="372.501,290.117 392.5,290.117 382.5,272.797 "/>
   <polygon class="fil2" points="357.5,290.117 367.5,272.797 347.5,272.797 "/>
   <polygon class="fil2" points="347.501,246.815 367.5,246.815 357.5,229.495 "/>
   <polygon class="fil2" points="332.5,246.815 342.5,229.495 322.5,229.495 "/>
   <polygon class="fil2" points="322.5,203.514 342.5,203.514 332.5,186.194 "/>
   <polygon class="fil2" points="307.5,203.515 317.5,186.195 297.5,186.195 "/>
   <polygon class="fil2" points="297.5,160.213 317.5,160.213 307.5,142.893 "/>
   <polygon class="fil2" points="282.5,160.213 292.5,142.893 272.5,142.893 "/>
   <polygon class="fil2" points="272.5,116.912 292.5,116.912 282.5,99.592 "/>
   <polygon class="fil2" points="257.5,116.912 267.5,99.592 247.499,99.592 "/>
   <polygon class="fil2" points="247.499,73.611 267.5,73.611 257.5,56.291 "/>
   <polygon class="fil2" points="232.5,73.611 242.5,56.291 222.499,56.291 "/>
   <polygon class="fil2" points="222.499,30.31 242.5,30.31 232.5,12.989 "/>
   <polygon class="fil2" points="207.5,30.31 217.499,12.989 197.499,12.989 "/>
   <polygon class="fil2" points="433.751,331.253 441.25,318.263 426.25,318.263 "/>
   <polygon class="fil2" points="426.251,298.777 441.251,298.777 433.751,285.787 "/>
   <polygon class="fil2" points="408.75,287.951 416.25,274.962 401.25,274.962 "/>
   <polygon class="fil2" points="401.251,255.476 416.251,255.476 408.75,242.486 "/>
   <polygon class="fil2" points="383.75,244.65 391.25,231.66 376.25,231.66 "/>
   <polygon class="fil2" points="376.251,212.174 391.25,212.174 383.75,199.184 "/>
   <polygon class="fil2" points="358.75,201.35 366.25,188.36 351.25,188.36 "/>
   <polygon class="fil2" points="351.25,168.874 366.25,168.874 358.75,155.884 "/>
   <polygon class="fil2" points="333.75,158.048 341.25,145.058 326.25,145.058 "/>
   <polygon class="fil2" points="326.25,125.573 341.25,125.573 333.75,112.582 "/>
   <polygon class="fil2" points="308.75,114.747 316.249,101.757 301.25,101.757 "/>
   <polygon class="fil2" points="301.25,82.271 316.25,82.271 308.75,69.281 "/>
   <polygon class="fil2" points="283.75,71.446 291.249,58.456 276.25,58.456 "/>
   <polygon class="fil2" points="276.25,38.97 291.25,38.97 283.75,25.98 "/>
   <polygon class="fil2" points="258.75,28.144 266.249,15.154 251.25,15.154 "/>
   <polygon class="fil2" points="460.001,285.786 465.001,277.126 455.001,277.126 "/>
   <polygon class="fil2" points="455.001,253.311 465.001,253.311 460.001,244.65 "/>
   <polygon class="fil2" points="435.001,242.486 440.001,233.826 430.001,233.826 "/>
   <polygon class="fil2" points="430.001,210.01 440.001,210.01 435.001,201.35 "/>
   <polygon class="fil2" points="410,199.185 415,190.525 405,190.525 "/>
   <polygon class="fil2" points="405,166.709 415,166.709 410,158.049 "/>
   <polygon class="fil2" points="385,155.883 390,147.223 380,147.223 "/>
   <polygon class="fil2" points="380,123.408 390,123.408 385,114.747 "/>
   <polygon class="fil2" points="360,112.582 365,103.922 355,103.922 "/>
   <polygon class="fil2" points="355,80.106 365,80.106 360,71.446 "/>
   <polygon class="fil2" points="335,69.281 340,60.621 330,60.621 "/>
   <polygon class="fil2" points="330,36.805 340,36.805 335,28.145 "/>
   <polygon class="fil2" points="310,25.979 315,17.319 305,17.319 "/>
   <polygon class="fil2" points="486.251,240.32 488.751,235.99 483.751,235.99 "/>
   <polygon class="fil2" points="483.751,207.844 488.751,207.844 486.25,203.514 "/>
   <polygon class="fil2" points="460,199.185 462.5,194.855 457.5,194.855 "/>
   <polygon class="fil2" points="457.5,166.709 462.5,166.709 460,162.379 "/>
   <polygon class="fil2" points="437.5,151.553 440,147.223 435,147.223 "/>
   <polygon class="fil2" points="435,119.077 440,119.077 437.5,114.748 "/>
   <polygon class="fil2" points="413.75,110.417 416.25,106.087 411.25,106.087 "/>
   <polygon class="fil2" points="411.25,77.941 416.25,77.941 413.75,73.611 "/>
   <polygon class="fil2" points="387.5,64.951 390,60.621 385,60.621 "/>
   <polygon class="fil2" points="385,32.475 390,32.475 387.5,28.145 "/>
   <polygon class="fil2" points="362.5,21.65 365,17.319 360,17.319 "/>
  </g>
 </g>
</svg>
